<svg version="1.1" xmlns="http://www.w3.org/2000/svg" viewBox="0 0 700.0551239394397 221.27222208566963" width="700.0551239394397" height="221.27222208566963">
  <!-- svg-source:excalidraw -->
  
  <defs>
    <style>
      @font-face {
        font-family: "Virgil";
        src: url("https://excalidraw.com/FG_Virgil.woff2");
      }
      @font-face {
        font-family: "Cascadia";
        src: url("https://excalidraw.com/Cascadia.woff2");
      }
    </style>
  </defs>
  <g transform="translate(153.05512393943962 21.272222085669625) rotate(0 27 95)"><path d="M0.6666723061352968 0.9388894569128752 C22.564182995073498 2.0017936503700913, 43.703715244680645 -1.4954258525557815, 52.55867280252278 1.6948505770415068 M-0.0694385701790452 0.130778887309134 C17.38462109975517 0.44456591038033366, 33.8374667422846 -0.8637877819128335, 53.18248245771974 -0.38928341027349234 M55.21771849878132 0.4896546732634306 C54.434735810663554 74.01697571855038, 53.608885741140696 147.51782085746527, 54.4505564738065 190.8115471135825 M53.2748536830768 0.4621358001604676 C53.97817194564268 40.073829252272844, 54.82317486507818 79.02159085776657, 54.79304725583643 189.18408648017794 M54.95315380580723 191.68736012093723 C41.55258054677397 191.25954941259698, 31.51670951247215 192.0735977624543, -1.5397600959986448 188.24040604941547 M53.13271004613489 189.046636977233 C41.68441741168499 189.61892931917683, 29.227281355299056 189.90222563603893, -0.7179861897602677 190.0886340821162 M0.04808809049427509 191.26021624915302 C-1.719578548427671 123.86829365137964, -2.033881529327482 58.4893238581717, -1.4852139186114073 -0.7610652912408113 M0.8613998061046004 190.63004047516733 C-0.23600910296663624 146.72542595677078, -1.6855675696395336 103.22407929878682, -0.07245015446096659 0.7585940146818757" stroke="#495057" stroke-width="1" fill="none"></path></g><g><g transform="translate(152.05512393943962 68.27222208566963) rotate(0 29.2372578781098 0.47503423877060413)"><path d="M-0.30499583669006824 -0.8540328662842511 C9.608952432995041 -0.5237735630323488, 48.96601765366892 1.3048269191135964, 58.77951159290969 1.8041013438254596 M1.7357426197081804 1.3119959335774185 C11.533992442165813 1.322509119237463, 48.40705805289249 0.25593783987065155, 57.71570971556008 0.10367980055510995" stroke="#495057" stroke-width="1" fill="none"></path></g></g><g><g transform="translate(151.05512393943962 116.27222208566963) rotate(0 29.63750569038092 1.2601107292622373)"><path d="M-0.44959894604980943 0.6092752296477555 C9.372920185451706 0.7636052726457515, 49.79243810387949 1.0463790336002905, 59.72461032681167 1.0650855261832475 M1.5152228779345753 -0.1164592201262713 C11.174043264662227 0.23576184364656605, 49.667349239463604 2.3018048144628604, 59.156985284760594 2.636680678650737" stroke="#495057" stroke-width="1" fill="none"></path></g></g><g><g transform="translate(153.05512393943962 166.27222208566963) rotate(0 30.04630005165933 0.8674411650746947)"><path d="M-0.5579909104853868 0.42075995989143844 C9.302392524604995 0.7228885410974422, 48.38861385794977 0.6462037601818641, 58.30402391962707 0.7386243183165788 M1.3499251321703194 -0.4039450065046548 C11.676488581870993 0.1736688280353944, 51.186517264420786 1.6915375224997597, 60.650591013804075 2.138827336654067" stroke="#495057" stroke-width="1" fill="none"></path></g></g><g transform="translate(12.055123939439625 65.27222208566963) rotate(0 50 12.5)"><text x="0" y="18" font-family="Virgil, Segoe UI Emoji" font-size="20px" fill="#c92a2a" text-anchor="start" style="white-space: pre;" direction="ltr">C Integer</text></g><g><g transform="translate(11.055123939439625 101.27222208566963) rotate(0 65.88338340908291 -0.3923662882298231)"><path d="M0.2649277310818434 1.1265070516616105 C22.579431675001985 0.77971735385557, 110.74072688631715 -1.6058039189626774, 132.82189075760544 -1.911239628121257 M-1.0551239394396545 0.6723193084448575 C21.266473286226397 0.43533276749153926, 110.06598963268102 -0.8677741881956657, 132.3053379417211 -0.8522151816636323" stroke="#c92a2a" stroke-width="1" fill="none"></path></g><g transform="translate(11.055123939439625 101.27222208566963) rotate(0 65.88338340908291 -0.3923662882298231)"><path d="M106.07581461474847 11.005432791408214 C108.60205607579985 8.611309079309121, 116.54790997851218 5.308002867200757, 132.30574082255364 -1.4047545135021209 M104.92313606080215 10.058955248776886 C112.15960710050976 5.345958163271854, 122.03656228257829 2.701117339801951, 131.4090870762989 -1.7777399761602282" stroke="#c92a2a" stroke-width="1" fill="none"></path></g><g transform="translate(11.055123939439625 101.27222208566963) rotate(0 65.88338340908291 -0.3923662882298231)"><path d="M105.9101644544964 -9.515107221229076 C108.50038269354549 -7.574859841763988, 116.48122835795388 -6.54342925129893, 132.30574082255364 -1.4047545135021209 M104.75748590055008 -10.461584763860404 C112.16432573380641 -8.634607408134627, 122.09407289991398 -4.739641574180747, 131.4090870762989 -1.7777399761602282" stroke="#c92a2a" stroke-width="1" fill="none"></path></g></g><g transform="translate(165.05512393943962 82.77222208566963) rotate(0 15 12.5)"><text x="15" y="18" font-family="Virgil, Segoe UI Emoji" font-size="20px" fill="#c92a2a" text-anchor="middle" style="white-space: pre;" direction="ltr">20</text></g><g transform="translate(279.0551239394396 21.272222085669625) rotate(0 74 12.5)"><text x="0" y="18" font-family="Virgil, Segoe UI Emoji" font-size="20px" fill="#364fc7" text-anchor="start" style="white-space: pre;" direction="ltr">Python Integer</text></g><g transform="translate(255.05512393943962 61.272222085669625) rotate(0 95.5 19.5)"><path d="M0.5568680930882692 0.5797214638441801 C54.14553398313001 3.5147108891513197, 107.62264477368444 3.683169410517439, 189.46242411620915 -0.32548646815121174 M0.033000863157212734 0.9846654618158937 C62.31425290079788 0.5249589459318669, 123.01180189736189 0.10540015262551616, 190.43379903491586 0.9132144236937165 M192.87368233688176 0.5200836192816496 C191.96326169169507 12.541675579268485, 189.8600087443646 21.2350948555395, 189.52626480348408 40.32832898013294 M190.0527739590034 0.45177505258470774 C190.3960642920155 10.982837250176818, 191.574394504847 23.40853083357215, 190.741847849451 39.7375408494845 M192.39289106614888 39.24465407244861 C138.56073275757953 38.93848588959314, 82.97016876358538 41.60314878717996, -1.815105004236102 38.06634051911533 M191.42329988535494 38.10876596812159 C139.405504234042 41.326593067897484, 88.71239177212118 40.86031758452766, -0.19838004652410746 38.99677423480898 M-1.1107864808291197 40.225783897563815 C1.584707023287192 26.833826216589657, -0.006388483857736049 14.235155812837181, -0.5975129436701536 1.4526960980147123 M0.34266824182122946 39.93870095256716 C0.23531482647173108 28.90135448826477, -0.6321980850864202 19.25357349179685, 0.013353384099900723 0.581203886307776" stroke="#495057" stroke-width="1" fill="none"></path></g><g transform="translate(270.0551239394396 71.27222208566963) rotate(0 80 12.5)"><text x="0" y="18" font-family="Virgil, Segoe UI Emoji" font-size="20px" fill="#495057" text-anchor="start" style="white-space: pre;" direction="ltr">PyObject_HEAD</text></g><g transform="translate(499.0551239394396 12.272222085669625) rotate(0 95.5 19.5)"><path d="M1.0005413424223661 1.1311400700360537 C72.46437749592587 0.016826615491882135, 140.7371869618073 -1.6805425427760927, 191.62643463723361 -1.373626096174121 M0.929703482426703 -0.28319978062063456 C73.14788524089381 -0.31842798021622, 147.14769179336727 0.2575462755840272, 190.03200236801058 -0.21369376126676798 M189.26018221490085 1.255695478990674 C192.3897107268218 15.48256144700572, 191.60440910109318 30.96274047959596, 189.78080321662128 39.152069525793195 M190.75289026740938 -0.23390188161283731 C190.3902497223299 12.19265087163076, 191.9384309879225 25.219277439266445, 191.58172971848398 39.67524094041437 M191.89057923667133 40.15033336170018 C122.83289905684069 37.81977989851497, 54.96737090032548 38.767380680432545, 1.4223219882696867 39.90469576604664 M191.28420788887888 39.999004072509706 C148.28855101773516 38.168806876735765, 103.21984364762902 37.820031758146364, -0.2298395847901702 38.41340259369463 M1.524239731952548 39.57610108144581 C1.1898554269131274 24.734829392004755, 1.3186048570927233 14.507832681201396, 0.9002951513975859 -1.8527468871325254 M0.270390965975821 39.04231861885637 C0.4799084952939302 32.047660388518125, -0.7461049565207213 23.24505595304072, 0.9387556398287416 0.6734901731833816" stroke="#495057" stroke-width="1" fill="none"></path></g><g transform="translate(514.0551239394397 22.272222085669625) rotate(0 48.5 12.5)"><text x="0" y="18" font-family="Virgil, Segoe UI Emoji" font-size="20px" fill="#495057" text-anchor="start" style="white-space: pre;" direction="ltr">ob_refcnt</text></g><g transform="translate(499.0551239394396 92.27222208566963) rotate(0 95.5 19.5)"><path d="M-1.0244629215449095 0.15031410567462444 C60.33062267722562 -2.6139972457382825, 119.69744419213384 0.2058971276786179, 192.78188808448613 1.5197262298315763 M-0.12501259986311197 -0.48320799227803946 C43.99822865696624 -2.2022929878812283, 89.77885573990643 -0.6617420704942194, 190.8497411077842 0.8530138516798615 M189.34298761375248 -1.6448965538293123 C190.52058445013128 11.428405546862633, 193.16494350231252 20.327587698213758, 190.54309357888997 39.67014659754932 M191.02904928382486 0.23797950986772776 C190.2889111588616 12.077647843305023, 190.61913117271848 25.08843682035804, 190.33394882734865 38.0438449466601 M190.7529205251485 40.22666944377124 C144.96779389334841 38.51182512418367, 97.50067759174853 40.49052153007128, 1.340738968923688 37.810768915340304 M190.3696794277057 38.79565478209406 C146.87070312043653 39.37089007045142, 101.83593636974692 40.873269219649956, 0.5424140160903335 39.86697069648653 M1.5191175509244204 40.32330067269504 C1.2262942723277956 29.79919995917007, 1.6655256084445864 18.01931425724178, -0.07194088213145733 -0.6583213675767183 M0.7629361813887954 38.692411818541586 C0.2890550930332393 31.077290364634244, -0.7202691893745213 21.854786136373875, 0.4183434611186385 -0.14278834220021963" stroke="#495057" stroke-width="1" fill="none"></path></g><g transform="translate(514.0551239394397 102.27222208566963) rotate(0 38 12.5)"><text x="0" y="18" font-family="Virgil, Segoe UI Emoji" font-size="20px" fill="#495057" text-anchor="start" style="white-space: pre;" direction="ltr">ob_size</text></g><g transform="translate(499.0551239394396 51.272222085669625) rotate(0 95.5 19.5)"><path d="M-1.7262797821313143 -1.2513632606714964 C73.48956499127672 0.8374357257876546, 148.88236403409394 3.3023533259425313, 191.8287993799895 -1.0251285266131163 M0.35556397680193186 -0.5712757939472795 C57.44566761730239 2.2044202828686683, 114.76963604204357 2.2872485959809272, 190.9761037910357 0.5060970848426223 M192.32685054652393 0.40273125655949116 C191.05042875864544 11.4382238435559, 190.9136619076971 20.533853225596253, 191.83018524758518 40.87208618409932 M191.90070415381342 -0.1097912723198533 C190.91679478946142 10.324329920765013, 191.36789677801542 22.139195094257595, 190.0603760862723 38.41406045015901 M191.9912765752524 40.91156400926411 C132.66728933649136 41.572921775272114, 71.782341328077 40.30597826092504, -0.9700360167771578 38.39143414981663 M190.6738421106711 39.032524204812944 C134.4604631484486 38.1757309453655, 78.28057055249809 38.77515509893186, -0.8852578913792968 38.71632522996515 M-1.957916246727109 40.424854235723615 C-0.7300279062334448 26.05653456347063, -1.3005220215860755 9.167907350324093, 0.2325179111212492 -0.12791226617991924 M0.5222984040156007 38.86626023706049 C0.4039443374145776 24.816149770189075, 0.8611860812176019 9.615716389194127, -0.07500102277845144 -0.37437053862959146" stroke="#495057" stroke-width="1" fill="none"></path></g><g transform="translate(514.0551239394397 61.272222085669625) rotate(0 39.5 12.5)"><text x="0" y="18" font-family="Virgil, Segoe UI Emoji" font-size="20px" fill="#495057" text-anchor="start" style="white-space: pre;" direction="ltr">ob_type</text></g><g transform="translate(499.0551239394396 131.27222208566963) rotate(0 95.5 19.5)"><path d="M-0.18780498020350933 -1.5341994035989046 C66.75856729866938 1.1421449988987298, 137.9778449272737 1.37617625891231, 189.70484020002186 1.3412952553480864 M-0.9329952532425523 -0.6138692712411284 C73.10064508588985 1.8496089113969356, 146.21821544058622 1.775941116930917, 190.83163443859667 0.8259854996576905 M190.19845010526478 0.3850312363356352 C192.51969174212775 6.61044958503917, 190.2199761635717 17.409367613308135, 191.64641030319035 37.871745301410556 M190.50892082508653 -0.882852247916162 C190.85047005963511 7.001453196350486, 190.34527804804034 14.711878063529731, 190.43942022975534 39.253910520114005 M191.56072028167546 37.52871675603092 C123.55544668687507 40.678882480720056, 58.07857160586863 38.98223823414184, -1.373687608167529 37.72546614520252 M191.05198646243662 38.438528277911246 C123.57488512834533 39.55060806090943, 58.29517816528676 39.47667133028619, -0.45750989858061075 38.539685615338385 M1.0467716623097658 39.71491135470569 C1.1897750759962946 25.509818851482123, -0.3681688045617193 13.659842238761485, -1.830734295770526 0.6248088609427214 M0.4108928209170699 39.20735848788172 C-0.895976572232321 26.12529557896778, 0.12079835037700826 14.877958049997687, -0.5360663468018174 -0.458626470528543" stroke="#495057" stroke-width="1" fill="none"></path></g><g transform="translate(514.0551239394397 141.27222208566963) rotate(0 16.5 12.5)"><text x="0" y="18" font-family="Virgil, Segoe UI Emoji" font-size="20px" fill="#495057" text-anchor="start" style="white-space: pre;" direction="ltr">......</text></g><g transform="translate(255.05512393943962 100.27222208566963) rotate(0 95.5 19.5)"><path d="M-1.620365308597684 -0.6538113187998533 C66.17333349613473 2.3427401177678258, 134.45978246871383 2.1980805389676243, 189.99824763648212 0.4116606283932924 M-0.5077255582436919 -0.4204219812527299 C50.14088774798438 -0.7608025675732641, 99.71019445173442 -0.8306746786553412, 191.25283081177622 0.39611524995416403 M190.96178342215717 -0.7524290513247252 C190.23880010523834 15.535609959345312, 190.25451814808883 29.390255491621794, 192.1921040546149 39.054820315912366 M191.86241347435862 -0.43917923513799906 C191.23477983239107 7.749857558961958, 190.57347604396753 16.20605190768838, 190.01885245088488 38.02665666397661 M190.87434406392276 37.462309615686536 C136.7403666396625 39.737342505743726, 88.16591184418647 40.97581204681657, 0.1433133017271757 40.87638767249882 M190.00040624383837 39.60979632195085 C141.68406761894002 40.52476015319117, 92.99820022359489 39.33000439037569, -0.4688481008633971 39.23332322295755 M1.1384958159178495 39.33153017051518 C-0.7669960641209036 26.083697598148134, -1.194526770049706 10.142339711450038, -0.7226485479623079 1.0319413114339113 M-0.9632235681638122 39.2351411646232 C0.2059069043863565 26.496826903987674, -0.32926201160065827 12.021947053447363, -0.32877059932798147 -0.08560016099363565" stroke="#495057" stroke-width="1" fill="none"></path></g><g transform="translate(270.0551239394396 110.27222208566963) rotate(0 25 12.5)"><text x="0" y="18" font-family="Virgil, Segoe UI Emoji" font-size="20px" fill="#495057" text-anchor="start" style="white-space: pre;" direction="ltr">Digit</text></g><g transform="translate(371.0551239394396 107.27222208566963) rotate(0 26 14)"><path d="M-0.01074264757335186 1.4416589867323637 C12.330890145897866 -1.447648163922131, 27.95256940238178 -1.2586513124778866, 50.99970229156315 -1.3706839550286531 M0.16912404354661703 -0.2132939612492919 C14.945694246329367 -0.8647690899670124, 30.216198126785457 -0.9149583764374256, 51.812155491672456 0.5577385211363435 M50.87946637161076 -1.2787759769707918 C52.467665436305104 8.725129385292531, 51.154909315146504 18.743635501340034, 50.37228931672871 28.777607811614875 M52.34726811107248 0.9789895797148347 C52.67761235356331 8.811908348463477, 51.98339923143387 16.719634284265343, 52.434336996637285 27.881164678372446 M50.543358938768506 26.47933329455555 C37.85647496655584 26.03808619115502, 22.115286871418355 27.608053043819968, -1.9327950906008482 26.04818160645664 M52.676457977853715 27.30304897669703 C36.46390844453126 27.3606885226816, 21.497428819350898 26.80577473364771, -0.7195902401581407 28.659517326392237 M-1.3380957078188658 28.782087875530127 C0.05657350551337004 21.536449152976278, 0.9024591995403171 14.114371145144107, 0.9548714328557253 0.5989353787153959 M-0.8483417565003037 27.695071973837916 C0.5691979026049375 20.681214830093086, -1.2284755314141513 13.893348935432732, 0.04748681839555502 0.23621077183634043" stroke="#495057" stroke-width="1" fill="none"></path></g><g transform="translate(383.0551239394396 109.27222208566963) rotate(0 15 12.5)"><text x="0" y="18" font-family="Virgil, Segoe UI Emoji" font-size="20px" fill="#c92a2a" text-anchor="start" style="white-space: pre;" direction="ltr">20</text></g><g><g transform="translate(451.0551239394396 209.27222208566963) rotate(0 0.31676505021755474 -0.3302272436827707)"><path d="M-0.5237443942576646 -0.06565521173179145 C-0.31205150075256816 -0.004659493888417833, 1.2663118105381728 -0.2959268451978762, 1.1572744946926832 -0.6028666894882917" stroke="#c92a2a" stroke-width="1.5" fill="none" stroke-dasharray="3 6"></path></g></g><g><g transform="translate(443.0551239394396 64.27222208566963) rotate(0 31.769446092537066 -27.725095187500102)"><path d="M0.3971333105117083 -1.1779682893306016 C0.9235267995546261 -2.004525365307927, -1.037346442664663 0.5165328007191419, 3.0927057225257157 -3.8020679611712693 C7.222757887716094 -8.12066872306168, 17.021490180368225 -19.714170112088322, 25.17744630165398 -27.08957286067307 C33.333402422939734 -34.46497560925782, 45.827852717911206 -43.62145370828608, 52.028442450240256 -48.05448445267975 C58.229032182569306 -52.48751519707342, 60.641380655641356 -52.6810382027179, 62.380984695628285 -53.68775732703507 C64.12058873561521 -54.694476451352244, 62.404916604235765 -54.103930268560845, 62.466066690161824 -54.09479919858277" stroke="#495057" stroke-width="1.5" fill="none" stroke-dasharray="12 8"></path></g></g><g><g transform="translate(445.0551239394396 99.27222208566963) rotate(0 25.89811821989713 32.15572205822767)"><path d="M-0.01691281981766224 -0.3987254183739424 C0.4454898616919915 -0.5255529325455427, 0.882932915414373 -4.145240032797059, 2.1253296714276075 -0.8114305179566145 C3.367726427440842 2.5223789968838295, 5.985043519859513 15.302413805201649, 7.437467716261745 19.60413167066872 C8.889891912663977 23.905849536135793, 8.61679088883102 20.746328095470865, 10.839874849841 24.998876674845814 C13.06295881085098 29.251425254220763, 17.270163140818475 39.14497044868767, 20.77597148232162 45.119423146918415 C24.281779823824763 51.09387584514916, 26.701861935978137 57.27751160052915, 31.87472489885986 60.84559286423028 C37.04758786174158 64.4136741279314, 48.66246914279957 65.44799207833906, 51.81314925961196 66.52791072912514" stroke="#495057" stroke-width="1.5" fill="none" stroke-dasharray="12 8"></path></g></g></svg>